<svg width="24" height="23" viewBox="0 0 24 23" fill="none" xmlns="http://www.w3.org/2000/svg">
<path d="M17.1426 1.57129H6.85686C5.91009 1.57129 5.14258 2.3388 5.14258 3.28557V11.857C5.14258 12.8038 5.91009 13.5713 6.85686 13.5713H17.1426C18.0894 13.5713 18.8569 12.8038 18.8569 11.857V3.28557C18.8569 2.3388 18.0894 1.57129 17.1426 1.57129Z" stroke="black" stroke-width="2" stroke-linecap="round" stroke-linejoin="round"/>
<path d="M5.14265 6.71436H2.57122C2.11656 6.71436 1.68053 6.89497 1.35904 7.21646C1.03755 7.53795 0.856934 7.97398 0.856934 8.42864V16.1429C0.856934 16.5976 1.03755 17.0336 1.35904 17.3551C1.68053 17.6766 2.11656 17.8572 2.57122 17.8572H21.4284C21.883 17.8572 22.3191 17.6766 22.6405 17.3551C22.962 17.0336 23.1426 16.5976 23.1426 16.1429V8.42864C23.1426 7.97398 22.962 7.53795 22.6405 7.21646C22.3191 6.89497 21.883 6.71436 21.4284 6.71436H18.8569M6.85693 17.8572L5.99979 22.1429M17.1426 17.8572L17.9998 22.1429" stroke="black" stroke-width="2" stroke-linecap="round" stroke-linejoin="round"/>
</svg>
