<svg width="20" height="20" viewBox="0 0 20 20" fill="none" xmlns="http://www.w3.org/2000/svg">
<path d="M2.49968 15.8333V4.16667C2.49968 3.70833 2.66301 3.31583 2.98968 2.98917C3.31634 2.6625 3.70857 2.49945 4.16634 2.5H9.99968C10.2358 2.5 10.4338 2.58 10.5938 2.74C10.7538 2.9 10.8336 3.09778 10.833 3.33333H12.4997C12.958 3.33333 13.3505 3.49667 13.6772 3.82333C14.0038 4.15 14.1669 4.54222 14.1663 5V9.16667C14.1663 9.40278 14.0863 9.60084 13.9263 9.76084C13.7663 9.92084 13.5686 10.0006 13.333 10C13.0969 10 12.8988 9.92 12.7388 9.76C12.5788 9.6 12.4991 9.40222 12.4997 9.16667V5H10.833V16.6667C10.833 16.9028 10.753 17.1008 10.593 17.2608C10.433 17.4208 10.2352 17.5006 9.99968 17.5H1.66634C1.43023 17.5 1.23218 17.42 1.07218 17.26C0.912177 17.1 0.832455 16.9022 0.833011 16.6667C0.833011 16.4306 0.913011 16.2325 1.07301 16.0725C1.23301 15.9125 1.43079 15.8328 1.66634 15.8333H2.49968ZM7.49968 10.8333C7.73579 10.8333 7.93384 10.7533 8.09384 10.5933C8.25384 10.4333 8.33357 10.2356 8.33301 10C8.33301 9.76389 8.25301 9.56584 8.09301 9.40584C7.93301 9.24583 7.73523 9.16611 7.49968 9.16667C7.26357 9.16667 7.06551 9.24667 6.90551 9.40667C6.74551 9.56667 6.66579 9.76445 6.66634 10C6.66634 10.2361 6.74634 10.4342 6.90634 10.5942C7.06634 10.7542 7.26412 10.8339 7.49968 10.8333ZM14.7913 16.0417L15.458 17.5C15.5275 17.6667 15.6525 17.75 15.833 17.75C16.0136 17.75 16.1386 17.6667 16.208 17.5L16.8747 16.0417L18.333 15.375C18.4997 15.3056 18.583 15.1806 18.583 15C18.583 14.8194 18.4997 14.6944 18.333 14.625L16.8747 13.9583L16.208 12.5C16.1386 12.3333 16.0136 12.25 15.833 12.25C15.6525 12.25 15.5275 12.3333 15.458 12.5L14.7913 13.9583L13.333 14.625C13.1663 14.6944 13.083 14.8194 13.083 15C13.083 15.1806 13.1663 15.3056 13.333 15.375L14.7913 16.0417Z" fill="#8D8D91"/>
</svg>
