<svg width="20" height="20" viewBox="0 0 20 20" fill="none" xmlns="http://www.w3.org/2000/svg">
<path d="M3.31272 16.4999L2.60439 16.2083C2.17383 16.0277 1.8855 15.7152 1.73939 15.2708C1.59327 14.8263 1.61772 14.3888 1.81272 13.9583L3.31272 10.7083V16.4999ZM6.64605 18.3333C6.18772 18.3333 5.79522 18.1699 5.46855 17.8433C5.14189 17.5166 4.97911 17.1244 4.98022 16.6666V11.6666L7.18855 17.7916C7.23022 17.8888 7.27189 17.9827 7.31355 18.0733C7.35522 18.1638 7.41077 18.2505 7.48022 18.3333H6.64605ZM10.9377 18.2499C10.4933 18.4166 10.0627 18.3958 9.64605 18.1874C9.22939 17.9791 8.93772 17.6527 8.77105 17.2083L5.06272 7.04161C4.89605 6.59717 4.90994 6.16328 5.10439 5.73995C5.29883 5.31661 5.61827 5.02828 6.06272 4.87495L12.3544 2.58328C12.7988 2.41661 13.2294 2.43745 13.6461 2.64578C14.0627 2.85411 14.3544 3.1805 14.5211 3.62495L18.2294 13.7916C18.3961 14.2361 18.3822 14.6702 18.1877 15.0941C17.9933 15.518 17.6738 15.8061 17.2294 15.9583L10.9377 18.2499ZM9.14605 8.33328C9.38216 8.33328 9.58022 8.25328 9.74022 8.09328C9.90022 7.93328 9.97994 7.7355 9.97939 7.49995C9.97939 7.26383 9.89966 7.06578 9.74022 6.90578C9.58077 6.74578 9.38272 6.66606 9.14605 6.66661C8.90994 6.66661 8.71216 6.74661 8.55272 6.90661C8.39327 7.06661 8.31327 7.26439 8.31272 7.49995C8.31272 7.73606 8.39272 7.93411 8.55272 8.09411C8.71272 8.25411 8.9105 8.33383 9.14605 8.33328Z" fill="#8D8D91"/>
</svg>
